<?xml version="1.0" standalone="no"?>
<!DOCTYPE svg PUBLIC "-//W3C//DTD SVG 20010904//EN"
 "http://www.w3.org/TR/2001/REC-SVG-20010904/DTD/svg10.dtd">
<svg version="1.0" xmlns="http://www.w3.org/2000/svg"
 width="16.000000pt" height="16.000000pt" viewBox="0 0 16.000000 16.000000"
 preserveAspectRatio="xMidYMid meet">
<metadata>
Created by potrace 1.11, written by Peter Selinger 2001-2013
</metadata>
<g transform="translate(0.000000,16.000000) scale(0.001563,-0.001563)"
fill="#000000" stroke="none">
<path d="M8330 7059 c-514 -220 -1404 -600 -1978 -846 l-1042 -445 2 -636 3
-635 1965 -852 c1081 -468 1968 -850 1973 -848 4 2 7 291 7 642 0 499 -3 641
-12 649 -13 10 -2355 1015 -2416 1037 l-33 12 38 15 c237 95 1837 780 1893
810 249 132 428 356 514 641 48 158 60 249 60 457 1 180 -16 384 -33 394 -4 3
-427 -175 -941 -395z"/>
<path d="M1072 6734 l3 -646 1185 -509 c652 -280 1193 -512 1202 -516 12 -6
-235 -114 -829 -363 -466 -195 -881 -372 -922 -393 -239 -121 -419 -329 -514
-592 -63 -177 -94 -432 -77 -648 9 -114 28 -256 35 -265 2 -2 725 302 1607
676 881 374 1746 740 1920 814 l318 133 0 635 0 635 -177 77 c-715 308 -3745
1608 -3748 1608 -3 0 -4 -291 -3 -646z"/>
</g>
</svg>
